<mxfile host="app.diagrams.net" agent="Mozilla/5.0 (Windows NT 10.0; Win64; x64) AppleWebKit/537.36 (KHTML, like Gecko) Chrome/140.0.0.0 Safari/537.36" version="28.2.3">
  <diagram name="Page-1" id="zAQc89RNc8MUfEDzV_cF">
    <mxGraphModel dx="857" dy="878" grid="1" gridSize="10" guides="1" tooltips="1" connect="1" arrows="1" fold="1" page="1" pageScale="1" pageWidth="850" pageHeight="1100" math="0" shadow="0" adaptiveColors="auto">
      <root>
        <mxCell id="0" />
        <mxCell id="1" parent="0" />
        <mxCell id="0R6qhRgpDGTmS3gbnbm--1" value="&lt;font size=&quot;3&quot;&gt;Student Information System&lt;/font&gt;" style="rounded=0;whiteSpace=wrap;html=1;fillColor=#F5AB50;strokeColor=#909090;fontColor=#1A1A1A;labelBackgroundColor=none;" vertex="1" parent="1">
          <mxGeometry x="160" y="40" width="560" height="80" as="geometry" />
        </mxCell>
        <mxCell id="0R6qhRgpDGTmS3gbnbm--22" style="edgeStyle=orthogonalEdgeStyle;rounded=0;orthogonalLoop=1;jettySize=auto;html=1;exitX=1;exitY=0.5;exitDx=0;exitDy=0;entryX=0;entryY=0.5;entryDx=0;entryDy=0;strokeColor=#182E3E;fontColor=#1A1A1A;" edge="1" parent="1" source="0R6qhRgpDGTmS3gbnbm--2" target="0R6qhRgpDGTmS3gbnbm--8">
          <mxGeometry relative="1" as="geometry" />
        </mxCell>
        <mxCell id="0R6qhRgpDGTmS3gbnbm--2" value="Admin" style="rounded=0;whiteSpace=wrap;html=1;labelBackgroundColor=none;fillColor=#F5AB50;strokeColor=#909090;fontColor=#1A1A1A;" vertex="1" parent="1">
          <mxGeometry x="100" y="160" width="120" height="40" as="geometry" />
        </mxCell>
        <mxCell id="0R6qhRgpDGTmS3gbnbm--3" value="" style="endArrow=classic;html=1;rounded=0;labelBackgroundColor=none;strokeColor=#182E3E;fontColor=default;" edge="1" parent="1">
          <mxGeometry width="50" height="50" relative="1" as="geometry">
            <mxPoint x="160" y="200" as="sourcePoint" />
            <mxPoint x="160" y="280" as="targetPoint" />
            <Array as="points" />
          </mxGeometry>
        </mxCell>
        <mxCell id="0R6qhRgpDGTmS3gbnbm--5" value="Forgot Password" style="ellipse;whiteSpace=wrap;html=1;aspect=fixed;labelBackgroundColor=none;fillColor=#F5AB50;strokeColor=#909090;fontColor=#1A1A1A;" vertex="1" parent="1">
          <mxGeometry x="120" y="280" width="80" height="80" as="geometry" />
        </mxCell>
        <mxCell id="0R6qhRgpDGTmS3gbnbm--6" value="" style="endArrow=classic;html=1;rounded=0;exitX=0.5;exitY=1;exitDx=0;exitDy=0;labelBackgroundColor=none;strokeColor=#182E3E;fontColor=default;" edge="1" parent="1" source="0R6qhRgpDGTmS3gbnbm--5" target="0R6qhRgpDGTmS3gbnbm--7">
          <mxGeometry width="50" height="50" relative="1" as="geometry">
            <mxPoint x="170" y="430" as="sourcePoint" />
            <mxPoint x="160" y="440" as="targetPoint" />
          </mxGeometry>
        </mxCell>
        <mxCell id="0R6qhRgpDGTmS3gbnbm--7" value="Send Email to User" style="ellipse;whiteSpace=wrap;html=1;aspect=fixed;labelBackgroundColor=none;fillColor=#F5AB50;strokeColor=#909090;fontColor=#1A1A1A;" vertex="1" parent="1">
          <mxGeometry x="120" y="400" width="80" height="80" as="geometry" />
        </mxCell>
        <mxCell id="0R6qhRgpDGTmS3gbnbm--23" style="edgeStyle=orthogonalEdgeStyle;rounded=0;orthogonalLoop=1;jettySize=auto;html=1;exitX=0.5;exitY=1;exitDx=0;exitDy=0;entryX=0.5;entryY=0;entryDx=0;entryDy=0;strokeColor=#182E3E;fontColor=#1A1A1A;" edge="1" parent="1" source="0R6qhRgpDGTmS3gbnbm--8" target="0R6qhRgpDGTmS3gbnbm--9">
          <mxGeometry relative="1" as="geometry" />
        </mxCell>
        <mxCell id="0R6qhRgpDGTmS3gbnbm--8" value="Login to System" style="ellipse;whiteSpace=wrap;html=1;aspect=fixed;labelBackgroundColor=none;fillColor=#F5AB50;strokeColor=#909090;fontColor=#1A1A1A;" vertex="1" parent="1">
          <mxGeometry x="290" y="140" width="80" height="80" as="geometry" />
        </mxCell>
        <mxCell id="0R6qhRgpDGTmS3gbnbm--9" value="Check Credentials" style="ellipse;whiteSpace=wrap;html=1;aspect=fixed;labelBackgroundColor=none;fillColor=#F5AB50;strokeColor=#909090;fontColor=#1A1A1A;" vertex="1" parent="1">
          <mxGeometry x="290" y="280" width="80" height="80" as="geometry" />
        </mxCell>
        <mxCell id="0R6qhRgpDGTmS3gbnbm--10" value="Check Role Of Access" style="ellipse;whiteSpace=wrap;html=1;aspect=fixed;labelBackgroundColor=none;fillColor=#F5AB50;strokeColor=#909090;fontColor=#1A1A1A;" vertex="1" parent="1">
          <mxGeometry x="440" y="160" width="80" height="80" as="geometry" />
        </mxCell>
        <mxCell id="0R6qhRgpDGTmS3gbnbm--11" value="Manage Modules" style="ellipse;whiteSpace=wrap;html=1;aspect=fixed;labelBackgroundColor=none;fillColor=#F5AB50;strokeColor=#909090;fontColor=#1A1A1A;" vertex="1" parent="1">
          <mxGeometry x="440" y="280" width="80" height="80" as="geometry" />
        </mxCell>
        <mxCell id="0R6qhRgpDGTmS3gbnbm--12" value="Manage Timetable details" style="rounded=0;whiteSpace=wrap;html=1;labelBackgroundColor=none;fillColor=#F5AB50;strokeColor=#909090;fontColor=#1A1A1A;" vertex="1" parent="1">
          <mxGeometry x="600" y="160" width="240" height="40" as="geometry" />
        </mxCell>
        <mxCell id="0R6qhRgpDGTmS3gbnbm--13" value="Manage Attendance Details" style="rounded=0;whiteSpace=wrap;html=1;labelBackgroundColor=none;fillColor=#F5AB50;strokeColor=#909090;fontColor=#1A1A1A;" vertex="1" parent="1">
          <mxGeometry x="600" y="240" width="240" height="40" as="geometry" />
        </mxCell>
        <mxCell id="0R6qhRgpDGTmS3gbnbm--14" value="Manage class Details" style="rounded=0;whiteSpace=wrap;html=1;labelBackgroundColor=none;fillColor=#F5AB50;strokeColor=#909090;fontColor=#1A1A1A;" vertex="1" parent="1">
          <mxGeometry x="600" y="320" width="240" height="40" as="geometry" />
        </mxCell>
        <mxCell id="0R6qhRgpDGTmS3gbnbm--15" value="Manage Student Details" style="rounded=0;whiteSpace=wrap;html=1;labelBackgroundColor=none;fillColor=#F5AB50;strokeColor=#909090;fontColor=#1A1A1A;" vertex="1" parent="1">
          <mxGeometry x="600" y="400" width="240" height="40" as="geometry" />
        </mxCell>
        <mxCell id="0R6qhRgpDGTmS3gbnbm--16" value="Manage Fees Details" style="rounded=0;whiteSpace=wrap;html=1;labelBackgroundColor=none;fillColor=#F5AB50;strokeColor=#909090;fontColor=#1A1A1A;" vertex="1" parent="1">
          <mxGeometry x="600" y="480" width="240" height="40" as="geometry" />
        </mxCell>
        <mxCell id="0R6qhRgpDGTmS3gbnbm--17" value="Manage Teacher Profiles" style="rounded=0;whiteSpace=wrap;html=1;labelBackgroundColor=none;fillColor=#F5AB50;strokeColor=#909090;fontColor=#1A1A1A;" vertex="1" parent="1">
          <mxGeometry x="600" y="560" width="240" height="40" as="geometry" />
        </mxCell>
        <mxCell id="0R6qhRgpDGTmS3gbnbm--18" value="Manage Report" style="rounded=0;whiteSpace=wrap;html=1;labelBackgroundColor=none;fillColor=#F5AB50;strokeColor=#909090;fontColor=#1A1A1A;" vertex="1" parent="1">
          <mxGeometry x="600" y="640" width="240" height="40" as="geometry" />
        </mxCell>
        <mxCell id="0R6qhRgpDGTmS3gbnbm--19" value="Manage System Admins" style="rounded=0;whiteSpace=wrap;html=1;labelBackgroundColor=none;fillColor=#F5AB50;strokeColor=#909090;fontColor=#1A1A1A;" vertex="1" parent="1">
          <mxGeometry x="160" y="720" width="120" height="40" as="geometry" />
        </mxCell>
        <mxCell id="0R6qhRgpDGTmS3gbnbm--20" value="Manage Role Of User" style="rounded=0;whiteSpace=wrap;html=1;labelBackgroundColor=none;fillColor=#F5AB50;strokeColor=#909090;fontColor=#1A1A1A;" vertex="1" parent="1">
          <mxGeometry x="320" y="720" width="120" height="40" as="geometry" />
        </mxCell>
        <mxCell id="0R6qhRgpDGTmS3gbnbm--21" value="Manage User Permission" style="rounded=0;whiteSpace=wrap;html=1;labelBackgroundColor=none;fillColor=#F5AB50;strokeColor=#909090;fontColor=#1A1A1A;" vertex="1" parent="1">
          <mxGeometry x="480" y="720" width="160" height="40" as="geometry" />
        </mxCell>
        <mxCell id="0R6qhRgpDGTmS3gbnbm--28" value="" style="endArrow=classic;html=1;rounded=0;strokeColor=#182E3E;fontColor=#1A1A1A;entryX=-0.03;entryY=0.615;entryDx=0;entryDy=0;entryPerimeter=0;" edge="1" parent="1" target="0R6qhRgpDGTmS3gbnbm--10">
          <mxGeometry width="50" height="50" relative="1" as="geometry">
            <mxPoint x="360" y="290" as="sourcePoint" />
            <mxPoint x="410" y="240" as="targetPoint" />
          </mxGeometry>
        </mxCell>
        <mxCell id="0R6qhRgpDGTmS3gbnbm--30" value="" style="endArrow=classic;html=1;rounded=0;strokeColor=#182E3E;fontColor=#1A1A1A;exitX=0;exitY=1;exitDx=0;exitDy=0;entryX=0.41;entryY=0.01;entryDx=0;entryDy=0;entryPerimeter=0;" edge="1" parent="1" source="0R6qhRgpDGTmS3gbnbm--11" target="0R6qhRgpDGTmS3gbnbm--19">
          <mxGeometry width="50" height="50" relative="1" as="geometry">
            <mxPoint x="305" y="510" as="sourcePoint" />
            <mxPoint x="260" y="620" as="targetPoint" />
          </mxGeometry>
        </mxCell>
        <mxCell id="0R6qhRgpDGTmS3gbnbm--32" value="" style="endArrow=classic;html=1;rounded=0;strokeColor=#182E3E;fontColor=#1A1A1A;entryX=0.5;entryY=0;entryDx=0;entryDy=0;" edge="1" parent="1" target="0R6qhRgpDGTmS3gbnbm--20">
          <mxGeometry width="50" height="50" relative="1" as="geometry">
            <mxPoint x="477.05" y="360" as="sourcePoint" />
            <mxPoint x="372.99594594594595" y="710" as="targetPoint" />
          </mxGeometry>
        </mxCell>
        <mxCell id="0R6qhRgpDGTmS3gbnbm--33" value="" style="endArrow=classic;html=1;rounded=0;strokeColor=#182E3E;fontColor=#1A1A1A;exitX=0.605;exitY=1.005;exitDx=0;exitDy=0;entryX=0.25;entryY=0;entryDx=0;entryDy=0;exitPerimeter=0;" edge="1" parent="1" source="0R6qhRgpDGTmS3gbnbm--11" target="0R6qhRgpDGTmS3gbnbm--21">
          <mxGeometry width="50" height="50" relative="1" as="geometry">
            <mxPoint x="470" y="570" as="sourcePoint" />
            <mxPoint x="520" y="520" as="targetPoint" />
          </mxGeometry>
        </mxCell>
        <mxCell id="0R6qhRgpDGTmS3gbnbm--34" value="" style="endArrow=classic;html=1;rounded=0;strokeColor=#182E3E;fontColor=#1A1A1A;entryX=0;entryY=0.5;entryDx=0;entryDy=0;exitX=0.725;exitY=0.905;exitDx=0;exitDy=0;exitPerimeter=0;" edge="1" parent="1" source="0R6qhRgpDGTmS3gbnbm--11" target="0R6qhRgpDGTmS3gbnbm--18">
          <mxGeometry width="50" height="50" relative="1" as="geometry">
            <mxPoint x="490" y="360" as="sourcePoint" />
            <mxPoint x="600" y="690" as="targetPoint" />
          </mxGeometry>
        </mxCell>
        <mxCell id="0R6qhRgpDGTmS3gbnbm--35" value="" style="endArrow=classic;html=1;rounded=0;strokeColor=#182E3E;fontColor=#1A1A1A;entryX=0;entryY=0.5;entryDx=0;entryDy=0;" edge="1" parent="1" source="0R6qhRgpDGTmS3gbnbm--11" target="0R6qhRgpDGTmS3gbnbm--16">
          <mxGeometry width="50" height="50" relative="1" as="geometry">
            <mxPoint x="470" y="570" as="sourcePoint" />
            <mxPoint x="520" y="520" as="targetPoint" />
          </mxGeometry>
        </mxCell>
        <mxCell id="0R6qhRgpDGTmS3gbnbm--36" value="" style="endArrow=classic;html=1;rounded=0;strokeColor=#182E3E;fontColor=#1A1A1A;entryX=0;entryY=0.5;entryDx=0;entryDy=0;" edge="1" parent="1" source="0R6qhRgpDGTmS3gbnbm--11" target="0R6qhRgpDGTmS3gbnbm--14">
          <mxGeometry width="50" height="50" relative="1" as="geometry">
            <mxPoint x="520" y="370" as="sourcePoint" />
            <mxPoint x="590.7106781186548" y="320" as="targetPoint" />
          </mxGeometry>
        </mxCell>
        <mxCell id="0R6qhRgpDGTmS3gbnbm--37" value="" style="endArrow=classic;html=1;rounded=0;strokeColor=#182E3E;fontColor=#1A1A1A;entryX=0;entryY=0.25;entryDx=0;entryDy=0;" edge="1" parent="1" target="0R6qhRgpDGTmS3gbnbm--12">
          <mxGeometry width="50" height="50" relative="1" as="geometry">
            <mxPoint x="500" y="290" as="sourcePoint" />
            <mxPoint x="550" y="240" as="targetPoint" />
          </mxGeometry>
        </mxCell>
        <mxCell id="0R6qhRgpDGTmS3gbnbm--38" value="" style="endArrow=classic;html=1;rounded=0;strokeColor=#182E3E;fontColor=#1A1A1A;entryX=0;entryY=0.5;entryDx=0;entryDy=0;" edge="1" parent="1" target="0R6qhRgpDGTmS3gbnbm--13">
          <mxGeometry width="50" height="50" relative="1" as="geometry">
            <mxPoint x="520" y="310" as="sourcePoint" />
            <mxPoint x="570" y="260" as="targetPoint" />
          </mxGeometry>
        </mxCell>
        <mxCell id="0R6qhRgpDGTmS3gbnbm--39" value="" style="endArrow=classic;html=1;rounded=0;strokeColor=#182E3E;fontColor=#1A1A1A;exitX=0.945;exitY=0.765;exitDx=0;exitDy=0;exitPerimeter=0;entryX=0;entryY=0.5;entryDx=0;entryDy=0;" edge="1" parent="1" source="0R6qhRgpDGTmS3gbnbm--11" target="0R6qhRgpDGTmS3gbnbm--15">
          <mxGeometry width="50" height="50" relative="1" as="geometry">
            <mxPoint x="550" y="410" as="sourcePoint" />
            <mxPoint x="600" y="360" as="targetPoint" />
          </mxGeometry>
        </mxCell>
      </root>
    </mxGraphModel>
  </diagram>
</mxfile>
